Bob Dylan is the debut album by the American singer-songwriter Bob Dylan, released in March 1962 on Columbia Records. It features two original compositions, the rest being old folk standards, and was produced by Columbia's legendary talent scout John H. Hammond, who signed Dylan to the label.

Track listing:

1.	"You're No Good"                  Jesse Fuller                 1:40
2.	"Talkin' New York"                Bob Dylan                    3:20
3.	"In My Time of Dyin'"             trad. arr. Dylan             2:40
4.	"Man of Constant Sorrow"          trad. arr. Dylan             3:10
5.	"Fixin' to Die"                   Bukka White                  2:22
6.	"Pretty Peggy-O"                  trad. arr. Dylan             3:23
7.	"Highway 51 Blues"                Curtis Jones                 2:52
8.	"Gospel Plow"                     trad. arr. Dylan             1:47
9.	"Baby, Let Me Follow You Down"    trad. arr. Eric von Schmidt  2:37
10.	"House of the Risin' Sun"  	  trad. arr. Dave Van Ronk     5:20
11.	"Freight Train Blues"  	          trad. arr.Dylan              2:18
12.	"Song to Woody"                   Bob Dylan                    2:42
13.	"See That My Grave Is Kept Clean" Blind Lemon Jefferson        2:43

Total Length                                                          36:54

Rip Log:

CUERipper v2.0.9 Copyright (C) 2008-10 Gregory S. Chudov

EAC extraction logfile from 8. July 2010, 20:01

Bob Dylan / Bob Dylan

Used drive  : TSSTcorp CDDVDW SH-S203N   Adapter: 1  ID: 0

Read mode               : Secure
Utilize accurate stream : Yes
Defeat audio cache      : Yes
Make use of C2 pointers : No

Read offset correction                      : 6
Overread into Lead-In and Lead-Out          : No
Fill up missing offset samples with silence : Yes
Delete leading and trailing silent blocks   : No
Null samples used in CRC calculations       : Yes
Used interface                              : Native Win32 interface for Win NT & 2000
Gap handling                                : Appended to previous track

Used output format : Internal WAV Routines
Sample format      : 44.100 Hz; 16 Bit; Stereo


TOC of the extracted CD

     Track |   Start  |  Length  | Start sector | End sector 
    ---------------------------------------------------------
        1  |  0:00.00 |  1:40.43 |         0    |     7542   
        2  |  1:40.43 |  3:20.43 |      7543    |    22585   
        3  |  5:01.11 |  2:40.56 |     22586    |    34641   
        4  |  7:41.67 |  3:10.37 |     34642    |    48928   
        5  | 10:52.29 |  2:22.66 |     48929    |    59644   
        6  | 13:15.20 |  3:23.71 |     59645    |    74940   
        7  | 16:39.16 |  2:52.71 |     74941    |    87911   
        8  | 19:32.12 |  1:47.30 |     87912    |    95966   
        9  | 21:19.42 |  2:37.12 |     95967    |   107753   
       10  | 23:56.54 |  5:20.41 |    107754    |   131794   
       11  | 29:17.20 |  2:18.50 |    131795    |   142194   
       12  | 31:35.70 |  2:42.29 |    142195    |   154373   
       13  | 34:18.24 |  2:43.63 |    154374    |   166661

Check out the NFO for full rip log.